# This file uses centimeters as units for non-parametric coordinates.

mtllib SolarPanelOBJ.mtl
g default
v -1.500000 12.109632 -3.988881
v -1.500000 -0.036573 -3.988881
v -1.500000 -0.036573 -4.988881
v -1.500000 13.301386 -4.988881
v -2.500000 -0.036573 -4.988881
v -2.500000 13.301386 -4.988881
v -1.666667 13.301386 -4.988881
v -5.000000 5.030623 1.951114
v -5.000000 -0.076340 6.236365
v -5.000000 0.245054 6.619388
v -5.000000 5.352016 2.334137
v -2.500000 -0.036573 -3.988881
v -1.666667 12.109632 -3.988881
v -2.500000 12.109632 -3.988881
v -4.916667 5.224342 2.441268
v -4.916667 0.372727 6.512257
v -4.916667 0.290359 6.414094
v -4.916667 5.141974 2.343105
v -5.000000 10.137586 -2.334137
v -5.000000 10.458979 -1.951114
v -4.916667 10.331306 -1.843983
v -4.916667 5.479691 2.227005
v -4.916667 5.397322 2.128843
v -4.916667 10.248938 -1.942146
v -1.666667 -0.076340 6.236365
v -1.666667 0.245054 6.619388
v -1.666667 5.030623 1.951114
v 1.500000 13.301386 -4.988881
v 1.500000 -0.036573 -4.988881
v 1.500000 -0.036573 -3.988881
v 1.500000 12.109632 -3.988881
v -1.750000 0.372727 6.512257
v -1.750000 0.290359 6.414094
v -5.000000 15.244549 -6.619388
v -5.000000 15.565943 -6.236365
v -1.750000 5.141974 2.343105
v -4.916667 15.438269 -6.129234
v -4.916667 10.586654 -2.058246
v -4.916667 10.504286 -2.156408
v -4.916667 15.355900 -6.227397
v -1.666667 10.137586 -2.334137
v -1.750000 5.224342 2.441268
v -1.750000 5.479691 2.227005
v -1.750000 5.397322 2.128843
v -1.666667 5.352016 2.334137
v 2.500000 12.109632 -3.988881
v 2.500000 -0.036573 -3.988881
v 2.500000 -0.036573 -4.988881
v 2.500000 13.301386 -4.988881
v -1.750000 10.248938 -1.942146
v -1.750000 10.331306 -1.843983
v -1.750000 10.586654 -2.058246
v -1.750000 10.504286 -2.156408
v -1.666667 10.458979 -1.951114
v -1.750000 15.355900 -6.227397
v -1.583333 5.224342 2.441268
v -1.583333 0.372727 6.512257
v -1.583333 0.290359 6.414094
v -1.583333 5.141974 2.343105
v -1.666667 15.565943 -6.236365
v -1.666667 15.244549 -6.619388
v -1.750000 15.438269 -6.129234
v -1.583333 10.331306 -1.843983
v -1.583333 5.479691 2.227005
v -1.583333 5.397322 2.128843
v -1.583333 10.248938 -1.942146
v 1.666667 -0.076340 6.236365
v 1.666667 0.245054 6.619388
v 1.666667 5.030623 1.951114
v 1.583333 0.372727 6.512257
v 1.583333 0.290359 6.414094
v 1.583333 5.141974 2.343105
v -1.583333 15.438269 -6.129234
v -1.583333 10.586654 -2.058246
v -1.583333 10.504286 -2.156408
v -1.583333 15.355900 -6.227397
v 1.666667 10.137586 -2.334137
v 1.583333 5.224342 2.441268
v 1.583333 5.479691 2.227005
v 1.583333 5.397322 2.128843
v 1.666667 13.301386 -4.988881
v 1.666667 5.352016 2.334137
v 1.583333 10.248938 -1.942146
v 1.666667 12.109632 -3.988881
v 1.583333 10.331306 -1.843983
v 1.583333 10.586654 -2.058246
v 1.583333 10.504286 -2.156408
v 1.666667 10.458979 -1.951114
v 1.583333 15.355900 -6.227397
v 1.750000 5.224342 2.441268
v 1.750000 0.372727 6.512257
v 1.750000 0.290359 6.414094
v 1.750000 5.141974 2.343106
v 1.666667 15.565943 -6.236365
v 1.666667 15.244549 -6.619388
v 1.583333 15.438269 -6.129234
v 1.750000 10.331306 -1.843983
v 1.750000 5.479691 2.227005
v 1.750000 5.397322 2.128843
v 1.750000 10.248938 -1.942146
v 5.000000 -0.076340 6.236365
v 5.000000 0.245054 6.619388
v 5.000000 5.030623 1.951114
v 4.916667 0.372727 6.512257
v 4.916667 0.290359 6.414094
v 4.916667 5.141974 2.343106
v 1.750000 15.438269 -6.129234
v 1.750000 10.586654 -2.058246
v 1.750000 10.504286 -2.156408
v 1.750000 15.355900 -6.227397
v 5.000000 10.137586 -2.334137
v 4.916667 5.224342 2.441268
v 4.916667 5.479691 2.227005
v 4.916667 5.397322 2.128843
v 5.000000 5.352016 2.334137
v 4.916667 10.248938 -1.942146
v 4.916667 10.331306 -1.843983
v 4.916667 10.586654 -2.058246
v 4.916667 10.504286 -2.156408
v 5.000000 10.458979 -1.951114
v 4.916667 15.355900 -6.227397
v 5.000000 15.565943 -6.236365
v 5.000000 15.244549 -6.619388
v 4.916667 15.438269 -6.129234
vt 0.625000 0.241149
vt 0.625000 0.000000
vt 0.875000 0.000000
vt 0.875000 0.246585
vt 0.625000 0.503415
vt 0.625000 0.750000
vt 0.375000 0.750000
vt 0.375000 0.503415
vt 0.583333 0.503415
vt 0.291667 0.000000
vt 0.375000 0.000000
vt 0.375000 0.250000
vt 0.291667 0.250000
vt 0.375000 0.000000
vt 0.583333 0.241149
vt 0.375000 0.241149
vt 0.375000 0.333333
vt 0.375000 0.250000
vt 0.375000 0.250000
vt 0.375000 0.333333
vt 0.375000 0.333333
vt 0.208333 0.000000
vt 0.208333 0.250000
vt 0.375000 0.416667
vt 0.375000 0.333333
vt 0.375000 0.333333
vt 0.375000 0.416667
vt 0.375000 0.416667
vt 0.458333 0.000000
vt 0.458333 0.250000
vt 0.375000 0.916667
vt 0.458333 0.916667
vt 0.458333 1.000000
vt 0.375000 1.000000
vt 0.125000 0.246585
vt 0.125000 0.000000
vt 0.375000 0.000000
vt 0.375000 0.241149
vt 0.458333 0.250000
vt 0.458333 0.250000
vt 0.125000 0.000000
vt 0.125000 0.250000
vt 0.458333 0.333333
vt 0.375000 0.500000
vt 0.375000 0.416667
vt 0.375000 0.416667
vt 0.375000 0.500000
vt 0.375000 0.500000
vt 0.375000 0.833333
vt 0.458333 0.833333
vt 0.458333 0.333333
vt 0.458333 0.333333
vt 0.458333 0.333333
vt 0.458333 0.333333
vt 0.625000 0.241149
vt 0.625000 0.000000
vt 0.875000 0.000000
vt 0.875000 0.246585
vt 0.458333 0.416667
vt 0.458333 0.416667
vt 0.458333 0.416667
vt 0.458333 0.416667
vt 0.458333 0.416667
vt 0.458333 0.500000
vt 0.458333 0.333333
vt 0.458333 0.250000
vt 0.458333 0.250000
vt 0.458333 0.333333
vt 0.458333 0.500000
vt 0.458333 0.750000
vt 0.375000 0.750000
vt 0.458333 0.500000
vt 0.458333 0.416667
vt 0.458333 0.333333
vt 0.458333 0.333333
vt 0.458333 0.416667
vt 0.541667 0.000000
vt 0.541667 0.250000
vt 0.541667 0.916667
vt 0.541667 1.000000
vt 0.541667 0.250000
vt 0.541667 0.250000
vt 0.541667 0.333333
vt 0.458333 0.500000
vt 0.458333 0.416667
vt 0.458333 0.416667
vt 0.458333 0.500000
vt 0.541667 0.833333
vt 0.541667 0.333333
vt 0.541667 0.333333
vt 0.541667 0.333333
vt 0.625000 0.503415
vt 0.625000 0.750000
vt 0.375000 0.750000
vt 0.375000 0.503415
vt 0.416667 0.503415
vt 0.541667 0.333333
vt 0.541667 0.416667
vt 0.416667 0.241148
vt 0.541667 0.416667
vt 0.541667 0.416667
vt 0.541667 0.416667
vt 0.541667 0.416667
vt 0.541667 0.500000
vt 0.541667 0.333333
vt 0.541667 0.250000
vt 0.541667 0.250000
vt 0.541667 0.333333
vt 0.541667 0.500000
vt 0.541667 0.750000
vt 0.541667 0.500000
vt 0.541667 0.416667
vt 0.541667 0.333333
vt 0.541667 0.333333
vt 0.541667 0.416667
vt 0.625000 0.000000
vt 0.625000 0.250000
vt 0.625000 0.916667
vt 0.625000 1.000000
vt 0.625000 0.250000
vt 0.625000 0.250000
vt 0.625000 0.333333
vt 0.541667 0.500000
vt 0.541667 0.416667
vt 0.541667 0.416667
vt 0.541667 0.500000
vt 0.625000 0.833333
vt 0.625000 0.333333
vt 0.625000 0.333333
vt 0.625000 0.333333
vt 0.625000 0.333333
vt 0.625000 0.416667
vt 0.625000 0.416667
vt 0.625000 0.416667
vt 0.625000 0.416667
vt 0.625000 0.416667
vt 0.708333 0.000000
vt 0.708333 0.250000
vt 0.625000 0.500000
vt 0.625000 0.500000
vt 0.625000 0.750000
vt 0.625000 0.500000
vt 0.791667 0.000000
vt 0.791667 0.250000
vt 0.875000 0.000000
vt 0.875000 0.250000
vt 0.458333 0.781708
vt 0.437500 0.781708
vt 0.437500 0.801154
vt 0.458333 0.801154
vt 0.541667 0.801154
vt 0.562500 0.801154
vt 0.562500 0.781708
vt 0.541667 0.781708
vt 0.537500 0.781708
vt 0.537500 0.801154
vt 0.462500 0.801154
vt 0.462500 0.781708
vt 0.125000 0.246585
vt 0.125000 0.000000
vt 0.625000 1.000000
vt 0.375000 1.000000
vt 0.625000 1.000000
vt 0.375000 1.000000
vn 1.000000 0.000000 0.000000
vn 1.000000 0.000000 0.000000
vn 1.000000 0.000000 0.000000
vn 1.000000 0.000000 0.000000
vn 0.000000 0.000000 -1.000000
vn 0.000000 0.000000 -1.000000
vn 0.000000 0.000000 -1.000000
vn 0.000000 0.000000 -1.000000
vn 0.000000 0.000000 -1.000000
vn -1.000000 0.000000 0.000000
vn -1.000000 0.000000 0.000000
vn -1.000000 0.000000 0.000000
vn -1.000000 0.000000 0.000000
vn 0.000000 0.000000 1.000000
vn 0.000000 0.000000 1.000000
vn 0.000000 0.000000 1.000000
vn 0.000000 0.000000 1.000000
vn 0.000000 0.000000 1.000000
vn 1.000000 -0.000001 0.000000
vn 1.000000 -0.000001 0.000000
vn 1.000000 -0.000001 0.000000
vn 1.000000 -0.000001 0.000000
vn -0.000000 0.642787 0.766045
vn 0.000001 0.642788 0.766044
vn 0.000002 0.642788 0.766044
vn 0.000002 0.642788 0.766044
vn -1.000000 0.000000 0.000000
vn -1.000000 0.000000 0.000000
vn 1.000000 -0.000001 0.000000
vn 1.000000 -0.000001 0.000000
vn 1.000000 -0.000001 0.000000
vn 1.000000 -0.000001 0.000000
vn -0.000000 0.642788 0.766044
vn -0.000002 0.642786 0.766046
vn -0.000002 0.642787 0.766045
vn 0.000000 -0.766044 0.642788
vn 0.000000 -0.766044 0.642788
vn 0.000000 -0.766044 0.642788
vn 0.000000 -0.766044 0.642788
vn 0.000000 -0.642788 -0.766044
vn 0.000000 -0.642788 -0.766044
vn 0.000000 -0.642788 -0.766044
vn 0.000000 -0.642788 -0.766044
vn -1.000000 0.000000 0.000000
vn -1.000000 0.000000 0.000000
vn -1.000000 0.000000 0.000000
vn -1.000000 0.000000 0.000000
vn 0.000000 0.766044 -0.642788
vn 0.000000 0.766044 -0.642788
vn 0.000000 0.766044 -0.642788
vn 0.000000 0.766044 -0.642788
vn 0.000000 0.642788 0.766044
vn -0.000001 0.642788 0.766044
vn -1.000000 0.000000 0.000000
vn -1.000000 0.000000 0.000000
vn 0.000000 0.642788 0.766045
vn 0.000000 0.642788 0.766045
vn 0.000000 0.642788 0.766045
vn 0.000000 0.642788 0.766045
vn 1.000000 -0.000001 0.000000
vn 1.000000 -0.000001 0.000000
vn 1.000000 -0.000001 0.000000
vn 1.000000 -0.000001 0.000000
vn 0.000000 0.642786 0.766046
vn 0.000001 0.642788 0.766044
vn 0.000001 0.642787 0.766045
vn 0.000000 -0.642788 -0.766044
vn 0.000000 -0.642788 -0.766044
vn 0.000000 -0.766046 0.642786
vn 0.000000 -0.766046 0.642786
vn 0.000000 -0.766046 0.642786
vn 0.000000 -0.766046 0.642786
vn 0.000000 0.766043 -0.642789
vn 0.000000 0.766043 -0.642789
vn 0.000000 0.766043 -0.642789
vn 0.000000 0.766043 -0.642789
vn 0.000000 0.642787 0.766045
vn -0.000001 0.642788 0.766044
vn 1.000000 0.000000 0.000000
vn 1.000000 0.000000 0.000000
vn 1.000000 0.000000 0.000000
vn 1.000000 0.000000 0.000000
vn 0.000002 0.642788 0.766044
vn 0.000000 0.642788 0.766044
vn 0.000000 0.642788 0.766044
vn 0.000000 0.642788 0.766044
vn 0.000000 0.642788 0.766044
vn 0.000000 -0.766043 0.642789
vn 0.000000 -0.766043 0.642789
vn 0.000000 -0.766043 0.642789
vn 0.000000 -0.766043 0.642789
vn 0.000000 0.766048 -0.642784
vn 0.000000 0.766048 -0.642784
vn 0.000000 0.766048 -0.642784
vn 0.000000 0.766048 -0.642784
vn -0.000000 0.642788 0.766044
vn 0.000002 0.642789 0.766043
vn -0.000001 0.642788 0.766045
vn 0.000000 0.642788 0.766044
vn 0.000000 0.642788 0.766044
vn 0.000000 0.642788 0.766044
vn 0.000000 0.642788 0.766044
vn -1.000000 0.000000 0.000000
vn -1.000000 0.000000 0.000000
vn -1.000000 0.000000 0.000000
vn -1.000000 0.000000 0.000000
vn 1.000000 0.000000 0.000000
vn 1.000000 0.000000 0.000000
vn 1.000000 0.000000 0.000000
vn 1.000000 0.000000 0.000000
vn 0.000000 0.766045 -0.642787
vn 0.000000 0.766045 -0.642787
vn 0.000000 0.766045 -0.642787
vn 0.000000 0.766045 -0.642787
vn 0.000002 0.642788 0.766045
vn 0.000002 0.642787 0.766045
vn 0.000000 -0.766043 0.642789
vn 0.000000 -0.766043 0.642789
vn 0.000000 -0.766043 0.642789
vn 0.000000 -0.766043 0.642789
vn -0.000000 0.642786 0.766046
vn -0.000001 0.642787 0.766045
vn -1.000000 0.000000 0.000000
vn -1.000000 0.000000 0.000000
vn -1.000000 0.000000 0.000000
vn -1.000000 0.000000 0.000000
vn 1.000000 0.000000 0.000000
vn 1.000000 0.000000 0.000000
vn 1.000000 0.000000 0.000000
vn 1.000000 0.000000 0.000000
vn -0.000002 0.642787 0.766045
vn -0.000002 0.642788 0.766045
vn 0.000000 -0.766044 0.642788
vn 0.000000 -0.766044 0.642788
vn 0.000000 -0.642788 -0.766044
vn 0.000000 -0.642788 -0.766044
vn 0.000000 0.766044 -0.642788
vn 0.000000 0.766044 -0.642788
vn 0.000000 0.766044 -0.642788
vn 0.000000 0.766044 -0.642788
vn 0.000000 0.642788 0.766044
vn -0.000001 0.642787 0.766045
vn -1.000000 0.000000 0.000000
vn -1.000000 0.000000 0.000000
vn -1.000000 0.000000 0.000000
vn -1.000000 0.000000 0.000000
vn 0.000000 0.642788 0.766044
vn 0.000000 0.642788 0.766044
vn 0.000000 0.642788 0.766044
vn 0.000000 0.642788 0.766044
vn 1.000000 0.000000 0.000000
vn 1.000000 0.000000 0.000000
vn 1.000000 0.000000 0.000000
vn 1.000000 0.000000 0.000000
vn 0.000001 0.642788 0.766044
vn 0.000001 0.642787 0.766045
vn 0.000000 -0.642788 -0.766044
vn 0.000000 -0.766046 0.642786
vn 0.000000 -0.766046 0.642786
vn 0.000000 -0.766046 0.642786
vn 0.000000 -0.766046 0.642786
vn 0.000000 0.766043 -0.642789
vn 0.000000 0.766043 -0.642789
vn 0.000000 0.766043 -0.642789
vn 0.000000 0.766043 -0.642789
vn 0.000000 0.000000 -1.000000
vn 0.000000 0.000000 -1.000000
vn 0.000000 0.000000 -1.000000
vn 0.000000 0.000000 -1.000000
vn 0.000000 0.000000 -1.000000
vn 0.000000 0.642788 0.766044
vn -0.000001 0.642787 0.766045
vn 0.000002 0.642787 0.766045
vn 0.000000 0.642788 0.766044
vn 0.000000 0.642788 0.766044
vn 0.000000 0.642788 0.766044
vn 0.000000 0.642788 0.766044
vn 0.000000 0.000000 1.000000
vn 0.000000 0.000000 1.000000
vn 0.000000 0.000000 1.000000
vn 0.000000 0.000000 1.000000
vn 0.000000 0.000000 1.000000
vn 0.000000 -0.766048 0.642784
vn 0.000000 -0.766048 0.642784
vn 0.000000 -0.766048 0.642784
vn 0.000000 -0.766048 0.642784
vn 0.000000 0.766048 -0.642784
vn 0.000000 0.766048 -0.642784
vn 0.000000 0.766048 -0.642784
vn 0.000000 0.766048 -0.642784
vn -0.000000 0.642788 0.766045
vn 0.000002 0.642788 0.766045
vn -0.000001 0.642788 0.766044
vn 0.000000 0.642788 0.766044
vn 0.000000 0.642788 0.766044
vn 0.000000 0.642788 0.766044
vn 0.000000 0.642788 0.766044
vn -1.000000 -0.000000 0.000000
vn -1.000000 -0.000000 0.000000
vn -1.000000 -0.000000 0.000000
vn -1.000000 -0.000000 0.000000
vn 1.000000 -0.000000 0.000000
vn 1.000000 -0.000000 0.000000
vn 1.000000 -0.000000 0.000000
vn 1.000000 -0.000000 0.000000
vn 0.000000 0.766045 -0.642787
vn 0.000000 0.766045 -0.642787
vn 0.000002 0.642788 0.766044
vn 0.000002 0.642789 0.766043
vn 0.000000 -0.766043 0.642789
vn 0.000000 -0.766043 0.642789
vn 0.000000 -0.766043 0.642789
vn 0.000000 -0.766043 0.642789
vn -0.000000 0.642786 0.766046
vn -0.000001 0.642787 0.766045
vn -1.000000 -0.000000 0.000000
vn -1.000000 -0.000000 0.000000
vn -1.000000 -0.000000 0.000000
vn -1.000000 -0.000000 0.000000
vn 1.000000 -0.000000 0.000000
vn 1.000000 -0.000000 0.000000
vn 1.000000 -0.000000 0.000000
vn 1.000000 -0.000000 0.000000
vn -0.000002 0.642788 0.766044
vn -0.000002 0.642789 0.766043
vn 0.000000 -0.766044 0.642788
vn 0.000000 -0.766044 0.642788
vn 0.000000 -0.642788 -0.766044
vn 0.000000 -0.642788 -0.766044
vn 0.000000 0.766044 -0.642788
vn 0.000000 0.766044 -0.642788
vn 0.000000 0.766044 -0.642788
vn 0.000000 0.766044 -0.642788
vn -0.000001 0.642788 0.766044
vn -0.000001 0.642787 0.766045
vn -1.000000 -0.000000 0.000000
vn -1.000000 -0.000000 0.000000
vn -1.000000 -0.000000 0.000000
vn -1.000000 -0.000000 0.000000
vn 0.000000 0.642788 0.766044
vn 0.000000 0.642788 0.766044
vn 0.000000 0.642788 0.766044
vn 0.000000 0.642788 0.766044
vn 1.000000 -0.000000 0.000000
vn 1.000000 -0.000000 0.000000
vn 1.000000 -0.000000 0.000000
vn 1.000000 -0.000000 0.000000
vn 0.000001 0.642786 0.766046
vn 0.000001 0.642787 0.766045
vn 0.000000 -0.642788 -0.766045
vn 0.000000 -0.766043 0.642789
vn 0.000000 -0.766043 0.642789
vn 0.000000 -0.766043 0.642789
vn 0.000000 -0.766043 0.642789
vn 0.000000 0.766046 -0.642786
vn 0.000000 0.766046 -0.642786
vn 0.000000 0.766046 -0.642786
vn 0.000000 0.766046 -0.642786
vn 0.000000 0.642788 0.766044
vn -0.000001 0.642788 0.766044
vn 0.000002 0.642787 0.766045
vn 0.000000 0.642788 0.766045
vn 0.000000 0.642788 0.766045
vn 0.000000 0.642788 0.766045
vn 0.000000 0.642788 0.766045
vn 0.000000 -0.766048 0.642784
vn 0.000000 -0.766048 0.642784
vn 0.000000 -0.766048 0.642784
vn 0.000000 -0.766048 0.642784
vn 0.000000 0.766048 -0.642784
vn 0.000000 0.766048 -0.642784
vn 0.000000 0.766048 -0.642784
vn 0.000000 0.766048 -0.642784
vn 0.000000 0.642787 0.766045
vn 0.000002 0.642788 0.766044
vn -0.000001 0.642786 0.766046
vn 1.000000 0.000000 0.000000
vn 1.000000 -0.000000 0.000000
vn 1.000000 -0.000000 0.000000
vn 1.000000 0.000000 0.000000
vn 0.000000 0.642788 0.766044
vn 0.000000 0.642788 0.766044
vn 0.000000 0.642788 0.766044
vn 0.000000 0.642788 0.766044
vn -1.000000 0.000001 0.000000
vn -1.000000 0.000001 0.000000
vn -1.000000 0.000001 0.000000
vn -1.000000 0.000001 0.000000
vn 0.000000 0.766045 -0.642787
vn 0.000000 0.766045 -0.642787
vn 0.000000 -0.766043 0.642789
vn 0.000000 -0.766043 0.642789
vn 0.000000 -0.766043 0.642789
vn 0.000000 -0.766043 0.642789
vn -0.000000 0.642786 0.766046
vn -0.000001 0.642787 0.766045
vn 1.000000 -0.000000 0.000000
vn 1.000000 -0.000000 0.000000
vn -1.000000 0.000001 0.000000
vn -1.000000 0.000001 0.000000
vn -1.000000 0.000001 0.000000
vn -1.000000 0.000001 0.000000
vn 1.000000 -0.000000 0.000000
vn 1.000000 -0.000000 0.000000
vn -1.000000 0.000001 0.000000
vn -1.000000 0.000001 0.000000
vn -1.000000 0.000001 0.000000
vn -1.000000 0.000001 0.000000
vn 0.000000 -0.642788 -0.766044
vn 0.000000 -0.642788 -0.766044
vn 0.000000 -0.642788 -0.766044
vn 0.000000 -0.642788 -0.766044
vn 0.000000 -0.642788 -0.766044
vn 0.000000 -0.642788 -0.766044
vn 0.000000 -0.642788 -0.766045
vn 0.000000 -0.642788 -0.766044
vn 0.000000 -0.642788 -0.766045
vn 0.000000 -0.642788 -0.766044
vn 0.000000 -0.642788 -0.766044
vn 0.000000 -0.642788 -0.766045
vn 0.000000 -0.642788 -0.766045
vn 0.000000 -0.642788 -0.766045
vn 0.000000 -0.642788 -0.766045
vn 0.000000 -0.642788 -0.766045
vn -1.000000 0.000000 0.000000
vn -1.000000 0.000000 0.000000
vn -1.000000 0.000000 0.000000
vn -1.000000 0.000000 0.000000
vn 0.000000 -1.000000 0.000000
vn 0.000000 -1.000000 0.000000
vn 0.000000 -1.000000 0.000000
vn 0.000000 -1.000000 0.000000
vn 0.000000 -1.000000 0.000000
vn 0.000000 -1.000000 0.000000
vn 0.000000 -1.000000 0.000000
vn 0.000000 -1.000000 0.000000
s off
g pCube4
usemtl initialShadingGroup
f 1/1/1 2/2/2 3/3/3 4/4/4
f 4/5/5 3/6/6 5/7/7 6/8/8 7/9/9
s 1
usemtl lambert2SG
f 8/10/10 9/11/11 10/12/12 11/13/13
s off
usemtl initialShadingGroup
f 12/14/14 2/2/15 1/1/16 13/15/17 14/16/18
usemtl lambert2SG
f 15/17/19 16/18/20 17/19/21 18/20/22
s 2
f 11/21/23 10/12/24 16/18/25 15/17/26
s 1
f 19/22/27 8/10/10 11/13/13 20/23/28
s off
f 21/24/29 22/25/30 23/26/31 24/27/32
s 2
f 20/28/33 11/21/23 22/25/34 21/24/35
s 4
f 9/11/36 25/29/37 26/30/38 10/12/39
s 5
f 8/31/40 27/32/41 25/33/42 9/34/43
s off
usemtl initialShadingGroup
f 28/35/44 29/36/45 30/37/46 31/38/47
usemtl lambert2SG
f 16/18/48 32/39/49 33/40/50 17/19/51
s 2
f 10/12/24 26/30/52 32/39/53 16/18/25
s 1
f 34/41/54 19/22/27 20/23/28 35/42/55
s off
usemtl lambert3SG
f 17/19/56 33/40/57 36/43/58 18/20/59
usemtl lambert2SG
f 37/44/60 38/45/61 39/46/62 40/47/63
s 2
f 35/48/64 20/28/33 38/45/65 37/44/66
s 5
f 19/49/67 41/50/68 27/32/41 8/31/40
s off
f 42/51/69 15/17/70 18/20/71 36/43/72
f 22/25/73 43/52/74 44/53/75 23/26/76
s 2
f 45/54/77 11/21/23 15/17/26 42/51/78
s off
usemtl initialShadingGroup
f 46/55/79 47/56/80 48/57/81 49/58/82
s 2
usemtl lambert2SG
f 11/21/23 45/54/77 43/52/83 22/25/34
s off
usemtl lambert3SG
f 23/26/84 44/53/85 50/59/86 24/27/87
usemtl lambert2SG
f 51/60/88 21/24/89 24/27/90 50/59/91
f 38/45/92 52/61/93 53/62/94 39/46/95
s 2
f 54/63/96 20/28/33 21/24/35 51/60/97
f 20/28/33 54/63/96 52/61/98 38/45/65
s off
usemtl lambert3SG
f 39/46/99 53/62/100 55/64/101 40/47/102
usemtl lambert2SG
f 32/39/103 42/51/104 36/43/105 33/40/106
s 2
f 26/30/52 45/54/77 42/51/78 32/39/53
s off
f 56/65/107 57/66/108 58/67/109 59/68/110
s 7
f 35/48/111 60/69/112 61/70/113 34/71/114
s 2
f 45/54/77 26/30/52 57/66/115 56/65/116
s off
f 62/72/117 37/44/118 40/47/119 55/64/120
s 2
f 60/69/121 35/48/64 37/44/66 62/72/122
s off
f 43/52/123 51/60/124 50/59/125 44/53/126
s 2
f 45/54/77 54/63/96 51/60/97 43/52/83
s off
f 63/73/127 64/74/128 65/75/129 66/76/130
s 2
f 54/63/96 45/54/77 64/74/131 63/73/132
s 4
f 25/29/37 67/77/133 68/78/134 26/30/38
s 5
f 27/32/41 69/79/135 67/80/136 25/33/42
s off
f 57/66/137 70/81/138 71/82/139 58/67/140
s 2
f 26/30/52 68/78/141 70/81/142 57/66/115
s off
f 52/61/143 62/72/144 55/64/145 53/62/146
usemtl lambert3SG
f 58/67/147 71/82/148 72/83/149 59/68/150
s 2
usemtl lambert2SG
f 54/63/96 60/69/121 62/72/122 52/61/98
s off
f 73/84/151 74/85/152 75/86/153 76/87/154
s 2
f 60/69/121 54/63/96 74/85/155 73/84/156
s 5
f 41/50/68 77/88/157 69/79/135 27/32/41
s off
f 78/89/158 56/65/159 59/68/160 72/83/161
f 64/74/162 79/90/163 80/91/164 65/75/165
usemtl initialShadingGroup
f 49/92/166 48/93/167 29/94/168 28/95/169 81/96/170
s 2
usemtl lambert2SG
f 82/97/171 45/54/77 56/65/116 78/89/172
f 45/54/77 82/97/171 79/90/173 64/74/131
s off
usemtl lambert3SG
f 65/75/174 80/91/175 83/98/176 66/76/177
usemtl initialShadingGroup
f 30/37/178 47/56/179 46/55/180 84/99/181 31/38/182
usemtl lambert2SG
f 85/100/183 63/73/184 66/76/185 83/98/186
f 74/85/187 86/101/188 87/102/189 75/86/190
s 2
f 88/103/191 54/63/96 63/73/132 85/100/192
f 54/63/96 88/103/191 86/101/193 74/85/155
s off
usemtl lambert3SG
f 75/86/194 87/102/195 89/104/196 76/87/197
usemtl lambert2SG
f 70/81/198 78/89/199 72/83/200 71/82/201
s 2
f 68/78/141 82/97/171 78/89/172 70/81/142
s off
f 90/105/202 91/106/203 92/107/204 93/108/205
s 7
f 60/69/112 94/109/206 95/110/207 61/70/113
s 2
f 82/97/171 68/78/141 91/106/208 90/105/209
s off
f 96/111/210 73/84/211 76/87/212 89/104/213
s 2
f 94/109/214 60/69/121 73/84/156 96/111/215
s off
f 79/90/216 85/100/217 83/98/218 80/91/219
s 2
f 82/97/171 88/103/191 85/100/192 79/90/173
s off
f 97/112/220 98/113/221 99/114/222 100/115/223
s 2
f 88/103/191 82/97/171 98/113/224 97/112/225
s 4
f 67/77/133 101/116/226 102/117/227 68/78/134
s 5
f 69/79/135 103/118/228 101/119/229 67/80/136
s off
f 91/106/230 104/120/231 105/121/232 92/107/233
s 2
f 68/78/141 102/117/234 104/120/235 91/106/208
s off
f 86/101/236 96/111/237 89/104/238 87/102/239
usemtl lambert3SG
f 92/107/240 105/121/241 106/122/242 93/108/243
s 2
usemtl lambert2SG
f 88/103/191 94/109/214 96/111/215 86/101/193
s off
f 107/123/244 108/124/245 109/125/246 110/126/247
s 2
f 94/109/214 88/103/191 108/124/248 107/123/249
s 5
f 69/79/135 77/88/157 111/127/250 103/118/228
s off
f 112/128/251 90/105/252 93/108/253 106/122/254
f 98/113/255 113/129/256 114/130/257 99/114/258
s 2
f 115/131/259 82/97/171 90/105/209 112/128/260
f 82/97/171 115/131/259 113/129/261 98/113/224
s off
usemtl lambert3SG
f 99/114/262 114/130/263 116/132/264 100/115/265
usemtl lambert2SG
f 117/133/266 97/112/267 100/115/268 116/132/269
f 108/124/270 118/134/271 119/135/272 109/125/273
s 2
f 120/136/274 88/103/191 97/112/225 117/133/275
f 88/103/191 120/136/274 118/134/276 108/124/248
s 8
f 101/116/277 103/137/278 115/138/279 102/117/280
s off
usemtl lambert3SG
f 109/125/281 119/135/282 121/139/283 110/126/284
usemtl lambert2SG
f 104/120/285 112/128/286 106/122/287 105/121/288
s 2
f 102/117/234 115/131/259 112/128/260 104/120/235
s 7
f 94/109/206 122/140/289 123/141/290 95/110/207
s off
f 124/142/291 107/123/292 110/126/293 121/139/294
s 2
f 122/140/295 94/109/214 107/123/249 124/142/296
s 8
f 103/137/278 111/143/297 120/144/298 115/138/279
s off
f 113/129/299 117/133/300 116/132/301 114/130/302
s 2
f 115/131/259 120/136/274 117/133/275 113/129/261
s 8
f 111/143/297 123/145/303 122/146/304 120/144/298
s off
f 118/134/305 124/142/306 121/139/307 119/135/308
s 2
f 120/136/274 122/140/295 124/142/296 118/134/276
s 5
f 34/71/309 61/70/310 7/147/311 6/148/312 14/149/313 13/150/314 41/50/68 19/49/67
f 95/110/315 123/141/316 111/127/250 77/88/157 84/151/317 46/152/318 49/153/319 81/154/320
f 61/70/310 95/110/315 81/154/320 28/155/321 31/156/322 84/151/317 77/88/157 41/50/68 13/150/314 1/157/323 4/158/324 7/147/311
s off
usemtl initialShadingGroup
f 6/159/325 5/160/326 12/14/327 14/16/328
f 29/94/329 48/93/330 47/161/331 30/162/332
f 5/7/333 3/6/334 2/163/335 12/164/336
