# This file uses centimeters as units for non-parametric coordinates.

mtllib Turbine2.mtl
g default
v -0.404509 0.617808 -0.293893
v -0.154509 0.617808 -0.475528
v 0.000000 0.617808 0.000000
v -0.500000 0.617808 0.000000
v 0.154508 0.617808 -0.475528
v -0.404509 0.617808 0.293893
v 0.404509 0.617808 -0.293893
v -0.154508 0.617808 0.475528
v 0.500000 0.617808 0.000000
v 0.154509 0.617808 0.475528
v 0.404509 0.617808 0.293893
v -0.154509 7.849010 -0.475528
v -0.404509 7.932902 -0.293893
v -0.500000 7.945445 0.000000
v 0.404509 7.932902 -0.293893
v 0.154508 7.849010 -0.475528
v -1.087317 9.071155 -1.087317
v 0.000000 9.516482 1.087317
v 0.000000 9.184903 -4.370329
v -4.471033 8.851223 1.887396
v -0.500000 9.273457 1.740380
v -4.471033 8.866474 1.791096
v 0.500000 7.945445 0.000000
v 1.087317 9.071155 -1.087317
v -1.087317 9.071155 1.087317
v -0.500000 9.222624 2.061379
v 0.000000 8.125704 -4.370329
v -1.087317 8.274033 -1.087317
v -0.500000 7.826025 1.562832
v 0.709488 8.524323 1.564285
v -0.253511 7.968336 1.740380
v 1.087317 9.071155 1.087317
v 1.000000 8.692051 1.562832
v -0.224562 8.467489 2.197968
v 0.000000 8.374472 2.197968
v 0.000000 8.692051 2.197968
v -0.317579 8.692051 2.197968
v -4.471033 8.532879 1.738268
v -4.471033 8.517630 1.834568
v 0.224562 8.467488 2.197968
v -0.224562 8.916613 2.197968
v 0.317579 8.692051 2.197968
v 0.000000 9.009630 2.197968
v 0.224562 8.916613 2.197968
v 1.087317 8.274033 -1.087317
v 0.000000 7.787412 -0.475528
v -0.404509 7.883203 0.293893
v -1.087317 8.274033 1.087317
v -0.500000 8.161480 1.564285
v -0.500000 8.110647 1.885284
v -0.154508 7.766404 0.475528
v 0.000000 7.704806 0.475528
v 0.000000 7.651668 1.087317
v 0.154509 7.766404 0.475528
v 0.404509 7.883203 0.293893
v 2.084460 4.732813 1.791111
v 2.373359 4.899609 1.738282
v 2.386566 4.907234 1.834582
v 2.097667 4.740438 1.887411
v -0.209488 7.993753 2.061379
v -0.500000 7.826025 2.062832
v -0.224562 8.467489 1.087317
v -0.224562 8.467489 1.562832
v -0.317579 8.692051 1.562832
v -0.317579 8.692051 1.087317
v 0.753512 8.549740 1.885284
v 1.087317 8.274033 1.087317
v -0.500000 9.558077 1.562832
v 0.224562 8.467488 1.087317
v 0.224562 8.467488 1.562832
v 0.000000 8.374472 1.562832
v 0.000000 8.374472 1.087317
v -0.224562 8.916613 1.562832
v -0.224562 8.916613 1.087317
v 0.317579 8.692051 1.087317
v 0.317579 8.692051 1.562832
v -0.500000 9.558077 2.062832
v 0.224562 8.916613 1.087317
v 0.224562 8.916613 1.562832
v 0.000000 9.009630 1.087317
v 0.000000 9.009630 1.562832
v -0.224562 8.467489 2.062832
v -0.317579 8.692051 2.062832
v 1.000000 8.692051 2.062832
v 0.224562 8.467488 2.062832
v 0.000000 8.374472 2.062832
v -0.224562 8.916613 2.062832
v -0.253511 9.415766 1.885284
v -0.209488 9.390348 1.564285
v 0.317579 8.692051 2.062832
v 0.753512 8.834362 1.740380
v 0.224562 8.916613 2.062832
v 0.000000 9.009630 2.062832
v 0.709488 8.859779 2.061379
v 2.084460 12.651293 1.834562
v 2.097667 12.643667 1.738262
v 2.386567 12.476871 1.791090
v 2.373360 12.484497 1.887390
v -0.147968 8.435762 1.562832
v -0.147968 8.948339 1.562832
v -0.147968 8.435762 2.062832
v -0.147968 8.948339 2.062832
vt 0.373591 0.064409
vt 0.451716 0.007647
vt 0.500000 0.150000
vt 0.343750 0.156250
vt 0.548284 0.007647
vt 0.373591 0.248091
vt 0.626409 0.064409
vt 0.451716 0.304853
vt 0.656250 0.156250
vt 0.548284 0.304853
vt 0.626409 0.248091
vt 0.425000 0.667944
vt 0.425000 0.312500
vt 0.450000 0.312500
vt 0.450000 0.672068
vt 0.475000 0.312500
vt 0.475000 0.672685
vt 0.375000 0.672068
vt 0.375000 0.312500
vt 0.400000 0.312500
vt 0.400000 0.667944
vt 0.375000 0.500000
vt 0.500000 0.250000
vt 0.500000 0.500000
vt 0.375000 0.688440
vt 0.375000 0.312500
vt 0.375000 0.312500
vt 0.600000 0.672685
vt 0.600000 0.312500
vt 0.625000 0.312500
vt 0.625000 0.672068
vt 0.625000 0.500000
vt 0.375000 0.250000
vt 0.375000 0.688440
vt 0.500000 0.750000
vt 0.375000 0.750000
vt 0.458333 0.312500
vt 0.541667 0.312500
vt 0.458333 0.312500
vt 0.625000 0.250000
vt 0.541667 0.312500
vt 0.389515 0.733265
vt 0.500000 0.687500
vt 0.500000 0.837500
vt 0.343750 0.843750
vt 0.458333 0.312500
vt 0.458333 0.688440
vt 0.610485 0.733265
vt 0.389515 0.954235
vt 0.656250 0.843750
vt 0.500000 1.000000
vt 0.610485 0.954235
vt 0.625000 0.750000
vt 0.412500 0.664917
vt 0.500000 0.312500
vt 0.500000 0.669625
vt 0.125000 0.000000
vt 0.375000 0.000000
vt 0.125000 0.250000
vt 0.458333 0.312500
vt 0.458333 0.688440
vt 0.525000 0.312500
vt 0.525000 0.663884
vt 0.500000 0.971976
vt 0.500000 1.000000
vt 0.482237 0.950606
vt 0.550000 0.312500
vt 0.550000 0.663884
vt 0.537500 0.660856
vt 0.517763 0.950606
vt 0.575000 0.312500
vt 0.575000 0.669625
vt 0.458333 0.312500
vt 0.541667 0.312500
vt 0.541667 0.688440
vt 0.458333 0.688440
vt 0.458333 0.688440
vt 0.458333 0.688440
vt 0.500000 0.506009
vt 0.500000 0.584115
vt 0.468750 0.584115
vt 0.468750 0.506009
vt 0.541667 0.688440
vt 0.625000 0.000000
vt 0.875000 0.000000
vt 0.875000 0.250000
vt 0.375000 0.312500
vt 0.562500 0.506009
vt 0.562500 0.584115
vt 0.531250 0.584115
vt 0.531250 0.506009
vt 0.437500 0.584115
vt 0.437500 0.506009
vt 0.593750 0.506009
vt 0.593750 0.584115
vt 0.375000 0.688440
vt 0.625000 0.506009
vt 0.625000 0.584115
vt 0.406250 0.506009
vt 0.406250 0.584115
vt 0.375000 0.584115
vt 0.375000 0.506009
vt 0.500000 0.666243
vt 0.500000 0.688440
vt 0.468750 0.688440
vt 0.468750 0.666243
vt 0.541667 0.688440
vt 0.562500 0.666243
vt 0.562500 0.688440
vt 0.531250 0.688440
vt 0.531250 0.666243
vt 0.437500 0.688440
vt 0.437500 0.666243
vt 0.625000 0.312500
vt 0.625000 0.688440
vt 0.625000 0.688440
vt 0.625000 0.312500
vt 0.593750 0.666243
vt 0.593750 0.688440
vt 0.541667 0.312500
vt 0.625000 0.666243
vt 0.625000 0.688440
vt 0.406250 0.666243
vt 0.406250 0.688440
vt 0.375000 0.688440
vt 0.375000 0.666243
vt 0.541667 0.688440
vt 0.625000 0.688440
vt 0.625000 0.312500
vt 0.541667 0.312500
vt 0.541667 0.688440
vt 0.510659 0.584115
vt 0.426841 0.584115
vt 0.510659 0.666243
vt 0.426841 0.666243
vt 0.453497 0.908786
vt 0.375000 1.000000
vt 0.546503 0.908786
vt 0.625000 1.000000
vt 0.500000 0.928410
vt 0.482237 0.907040
vt 0.453497 0.880783
vt 0.442519 0.881038
vt 0.557481 0.881038
vt 0.546503 0.880783
vt 0.517763 0.907040
vt 0.656250 0.156250
vt 0.421875 0.291566
vt 0.476880 0.191895
vt 0.500000 0.203060
vt 0.535088 0.188922
vt 0.549622 0.151985
vt 0.421875 0.708434
vt 0.656250 0.843750
vt 0.549622 0.839485
vt 0.535088 0.806247
vt 0.500000 0.791316
vt 0.476880 0.799304
vt 0.421875 0.020934
vt 0.535088 0.118747
vt 0.500000 0.103816
vt 0.476880 0.111805
vt 0.421875 0.979066
vt 0.476880 0.879395
vt 0.500000 0.890560
vt 0.535088 0.876422
vt 0.464912 0.117719
vt 0.450378 0.153970
vt 0.464912 0.187895
vt 0.464912 0.805219
vt 0.450378 0.841470
vt 0.464912 0.875395
vt 0.500000 0.000000
vt 0.500000 0.096900
vt 0.474184 0.103477
vt 0.463491 0.136960
vt 0.474184 0.171743
vt 0.500000 0.182051
vt 0.525816 0.171743
vt 0.536509 0.136960
vt 0.525816 0.103477
vn 0.000000 -1.000000 0.000000
vn 0.000000 -1.000000 -0.000000
vn 0.000000 -1.000000 -0.000000
vn 0.000000 -1.000000 0.000000
vn 0.000000 -1.000000 0.000000
vn 0.000000 -1.000000 0.000000
vn 0.000000 -1.000000 0.000000
vn 0.000000 -1.000000 -0.000000
vn 0.000000 -1.000000 0.000000
vn 0.000000 -1.000000 -0.000000
vn 0.000000 -1.000000 -0.000000
vn -0.587785 0.000000 -0.809017
vn -0.587785 0.000000 -0.809017
vn -0.587785 0.000000 -0.809017
vn -0.587785 0.000000 -0.809017
vn -0.951057 0.000000 -0.309017
vn -0.951057 0.000000 -0.309017
vn -0.951057 0.000000 -0.309017
vn -0.951057 0.000000 -0.309017
vn 0.587785 0.000000 -0.809017
vn 0.587785 0.000000 -0.809017
vn 0.587785 0.000000 -0.809017
vn 0.587785 0.000000 -0.809017
vn 0.000000 0.999058 -0.043403
vn 0.000000 0.999058 -0.043403
vn -0.306824 0.950870 -0.041310
vn -0.306824 0.950869 -0.041310
vn -0.098744 0.982865 0.155647
vn -0.098744 0.982865 0.155647
vn -0.098744 0.982865 0.155647
vn -0.098744 0.982865 0.155647
vn 0.951057 0.000000 -0.309017
vn 0.951057 0.000000 -0.309017
vn 0.951057 0.000000 -0.309017
vn 0.951057 0.000000 -0.309017
vn 0.306824 0.950870 -0.041310
vn 0.306824 0.950869 -0.041310
vn -0.949291 0.000000 -0.314400
vn 0.000000 0.000000 -1.000000
vn 0.000000 0.000000 -1.000000
vn -0.949291 0.000000 -0.314400
vn 0.500000 -0.866025 0.000001
vn 0.500000 -0.866025 0.000001
vn 0.500001 -0.866025 0.000001
vn 0.500003 -0.866024 0.000000
vn 0.000000 0.000000 1.000000
vn 0.000000 0.000000 1.000000
vn 0.000000 0.000000 1.000000
vn 0.000000 0.000000 1.000000
vn -1.000000 0.000000 0.000000
vn -1.000000 0.000000 0.000000
vn -1.000000 0.000000 0.000000
vn -1.000000 0.000000 0.000000
vn 0.000000 0.000000 1.000000
vn 0.000000 0.000000 1.000000
vn 0.000000 0.000000 1.000000
vn 0.000000 0.000000 1.000000
vn 0.000000 0.000000 1.000000
vn 0.949291 0.000000 -0.314400
vn 0.949291 0.000000 -0.314400
vn -0.000000 0.000000 -1.000000
vn -0.000000 0.000000 -1.000000
vn -0.000000 0.000000 -1.000000
vn -0.000000 0.000000 -1.000000
vn -0.000000 0.000000 -1.000000
vn -0.951057 0.000000 0.309017
vn -0.951057 0.000000 0.309017
vn -0.951057 0.000000 0.309017
vn -0.951057 0.000000 0.309017
vn -1.000000 0.000000 0.000000
vn -1.000000 0.000000 0.000000
vn -1.000000 0.000000 0.000000
vn -1.000000 0.000000 0.000000
vn -0.098744 -0.982866 -0.155642
vn -0.098744 -0.982866 -0.155642
vn -0.098744 -0.982866 -0.155642
vn -0.098744 -0.982866 -0.155642
vn -0.587785 0.000000 0.809017
vn -0.587785 0.000000 0.809017
vn -0.587785 0.000000 0.809017
vn -0.587785 0.000000 0.809017
vn -0.028633 0.156349 -0.987287
vn -0.028633 0.156349 -0.987287
vn -0.028633 0.156349 -0.987287
vn -0.028633 0.156349 -0.987287
vn -0.028633 -0.156349 0.987287
vn -0.028633 -0.156349 0.987287
vn -0.028633 -0.156349 0.987287
vn -0.028633 -0.156349 0.987287
vn -0.411943 -0.909587 -0.054364
vn -0.411943 -0.909587 -0.054364
vn -0.411942 -0.909587 -0.054364
vn -0.411943 -0.909587 -0.054364
vn -0.411943 -0.909587 -0.054364
vn -0.411942 -0.909587 -0.054364
vn -0.411943 -0.909587 -0.054364
vn -0.411943 -0.909587 -0.054364
vn -0.411942 -0.909587 -0.054364
vn -0.411943 -0.909587 -0.054364
vn -0.411943 -0.909587 -0.054364
vn 0.000000 -0.000000 1.000000
vn 0.000000 -0.000000 1.000000
vn 0.000000 -0.000000 1.000000
vn 0.000000 -0.000000 1.000000
vn 0.000000 -0.000000 1.000000
vn 0.411942 -0.909587 -0.054364
vn 0.411942 -0.909587 -0.054364
vn 0.411942 -0.909587 -0.054364
vn 0.411942 -0.909587 -0.054364
vn 0.411942 -0.909587 -0.054364
vn 0.411942 -0.909587 -0.054364
vn 0.411942 -0.909587 -0.054364
vn 0.411942 -0.909587 -0.054364
vn 0.411942 -0.909587 -0.054364
vn 0.411942 -0.909587 -0.054364
vn 0.411942 -0.909587 -0.054364
vn 0.951057 0.000000 0.309017
vn 0.951057 0.000000 0.309017
vn 0.951057 0.000000 0.309017
vn 0.951057 0.000000 0.309017
vn 0.587785 0.000000 0.809017
vn 0.587785 0.000000 0.809017
vn 0.587785 0.000000 0.809017
vn 0.587785 0.000000 0.809017
vn 0.499999 -0.866026 0.000003
vn 0.499999 -0.866026 0.000003
vn 0.499999 -0.866026 0.000003
vn 0.499999 -0.866026 0.000003
vn -0.801814 -0.576946 0.155650
vn -0.801814 -0.576946 0.155650
vn -0.801814 -0.576946 0.155650
vn -0.801814 -0.576946 0.155650
vn -1.000000 -0.000000 -0.000000
vn -1.000000 -0.000000 0.000001
vn -1.000000 -0.000000 0.000001
vn -1.000000 0.000000 -0.000001
vn 0.500001 -0.866025 -0.000000
vn 0.500001 -0.866025 -0.000006
vn -0.121084 -0.102975 -0.987287
vn -0.121084 -0.102975 -0.987287
vn -0.121084 -0.102975 -0.987287
vn -0.121084 -0.102975 -0.987287
vn -0.923879 -0.382684 0.000000
vn -0.923879 -0.382684 0.000000
vn -0.923879 -0.382684 0.000000
vn -0.923879 -0.382684 0.000000
vn 0.149717 0.053380 0.987287
vn 0.149717 0.053380 0.987287
vn 0.149717 0.053380 0.987287
vn 0.149717 0.053380 0.987287
vn 1.000000 0.000000 0.000000
vn 1.000000 0.000000 0.000000
vn 1.000000 0.000000 0.000000
vn 1.000000 0.000000 0.000000
vn -1.000000 0.000000 -0.000001
vn -1.000000 0.000000 -0.000001
vn 0.382683 -0.923880 0.000000
vn 0.382683 -0.923880 0.000000
vn 0.382683 -0.923880 0.000000
vn 0.382683 -0.923880 0.000000
vn -0.923879 0.382684 0.000000
vn -0.923879 0.382684 0.000000
vn -0.923879 0.382684 0.000000
vn -0.923879 0.382684 0.000000
vn 0.900558 0.405916 -0.155650
vn 0.900558 0.405916 -0.155650
vn 0.900558 0.405916 -0.155650
vn 0.900558 0.405916 -0.155650
vn 0.923880 -0.382683 0.000000
vn 0.923880 -0.382683 0.000000
vn 0.923880 -0.382683 0.000000
vn 0.923880 -0.382683 0.000000
vn -1.000000 0.000001 0.000000
vn -1.000000 0.000000 0.000001
vn 0.923879 0.382684 0.000000
vn 0.923879 0.382684 0.000000
vn 0.923879 0.382684 0.000000
vn 0.923879 0.382684 0.000000
vn 0.382687 0.923878 0.000000
vn 0.382687 0.923878 0.000000
vn 0.382687 0.923878 0.000000
vn 0.382687 0.923878 0.000000
vn -0.923879 -0.382684 0.000000
vn -0.923879 -0.382684 0.000000
vn -0.923879 -0.382684 0.000000
vn -0.923879 -0.382684 0.000000
vn 0.500002 -0.866024 -0.000003
vn 0.500001 -0.866025 -0.000005
vn 0.382683 -0.923880 0.000000
vn 0.382683 -0.923880 0.000000
vn 0.382683 -0.923880 0.000000
vn 0.382683 -0.923880 0.000000
vn -0.923879 0.382684 0.000000
vn -0.923879 0.382684 0.000000
vn -0.923879 0.382684 0.000000
vn -0.923879 0.382684 0.000000
vn 0.500003 0.866024 0.000000
vn 0.500002 0.866024 -0.000001
vn 0.500001 0.866025 -0.000001
vn 0.500001 0.866025 0.000001
vn 0.923880 -0.382683 0.000000
vn 0.923880 -0.382683 0.000000
vn 0.923880 -0.382683 0.000000
vn 0.923880 -0.382683 0.000000
vn 0.500002 0.866024 0.000001
vn 0.500001 0.866025 0.000001
vn 0.923879 0.382685 0.000000
vn 0.923879 0.382685 0.000000
vn 0.923879 0.382685 0.000000
vn 0.923879 0.382685 0.000000
vn 0.382686 0.923878 0.000000
vn 0.382686 0.923878 0.000000
vn 0.382686 0.923878 0.000000
vn 0.382686 0.923878 0.000000
vn 0.500003 0.866024 -0.000000
vn 0.500001 0.866025 -0.000001
vn -0.801814 0.576946 -0.155651
vn -0.801814 0.576946 -0.155651
vn -0.801814 0.576946 -0.155651
vn -0.801814 0.576946 -0.155651
vn 0.149718 -0.053379 -0.987287
vn 0.149718 -0.053379 -0.987287
vn 0.149718 -0.053379 -0.987287
vn 0.149718 -0.053379 -0.987287
vn -0.121085 0.102973 0.987287
vn -0.121085 0.102973 0.987287
vn -0.121085 0.102973 0.987287
vn -0.121085 0.102973 0.987287
vn 0.900559 -0.405917 0.155647
vn 0.900559 -0.405917 0.155647
vn 0.900559 -0.405917 0.155647
vn 0.900559 -0.405917 0.155647
vn -0.382686 -0.923878 -0.000001
vn -0.382687 -0.923878 -0.000001
vn -0.382686 -0.923878 -0.000001
vn -0.382686 -0.923878 -0.000001
vn -0.382686 -0.923878 -0.000001
vn -0.382686 0.923878 0.000000
vn -0.382686 0.923878 0.000000
vn -0.382686 0.923878 0.000000
vn -0.382687 0.923878 0.000000
vn -0.382686 0.923878 0.000000
vn -0.382686 -0.923878 0.000000
vn -0.382686 -0.923878 0.000000
vn -0.382686 -0.923878 0.000000
vn -0.382686 -0.923878 0.000000
vn -0.382686 -0.923878 0.000000
vn 0.499999 0.866026 -0.000007
vn 0.499999 0.866026 -0.000007
vn 0.499999 0.866026 -0.000007
vn 0.499999 0.866026 -0.000007
vn -0.382686 0.923878 0.000000
vn -0.382686 0.923878 0.000000
vn -0.382686 0.923878 0.000000
vn -0.382686 0.923878 0.000000
vn -0.382686 0.923878 0.000000
vn -0.000000 -0.000000 -1.000000
vn -0.000000 0.000000 -1.000000
vn -0.000000 0.000000 -1.000000
vn -0.000000 0.000000 -1.000000
vn -0.000000 0.000000 -1.000000
vn -0.000000 -0.000000 -1.000000
vn 0.000000 0.000000 1.000000
vn 0.000000 0.000000 1.000000
vn 0.000000 0.000000 1.000000
vn 0.000000 0.000000 1.000000
vn 0.000000 0.000000 1.000000
vn 0.000000 0.000000 1.000000
vn 0.000000 -0.000000 -1.000000
vn 0.000000 -0.000000 -1.000000
vn 0.000000 -0.000000 -1.000000
vn 0.000000 -0.000000 -1.000000
vn 0.000000 0.000000 1.000000
vn 0.000000 0.000000 1.000000
vn 0.000000 0.000000 1.000000
vn 0.000000 0.000000 1.000000
vn 0.000000 -0.000000 -1.000000
vn 0.000000 -0.000000 -1.000000
vn 0.000000 -0.000000 -1.000000
vn 0.000000 0.000000 1.000000
vn 0.000000 0.000000 1.000000
vn 0.000000 0.000000 1.000000
vn 0.000000 0.000000 1.000000
vn 0.000000 0.000000 1.000000
vn 0.000000 0.000000 1.000000
vn 0.000000 0.000000 1.000000
vn 0.000000 0.000000 1.000000
vn 0.000000 0.000000 1.000000
vn 0.000000 0.000000 1.000000
vn 0.000000 0.000000 1.000000
vn 0.000000 0.000000 1.000000
vn 0.000000 0.000000 1.000000
vn 0.000000 0.000000 1.000000
vn 0.000000 0.000000 1.000000
vn 0.000000 0.000000 1.000000
vn 0.000000 0.000000 1.000000
s 1
g pCylinder4
usemtl lambert2SG
f 1/1/1 2/2/2 3/3/3
f 4/4/4 1/1/1 3/3/3
f 2/2/2 5/5/5 3/3/3
f 6/6/6 4/4/4 3/3/3
f 5/5/5 7/7/7 3/3/3
f 8/8/8 6/6/6 3/3/3
f 7/7/7 9/9/9 3/3/3
f 10/10/10 8/8/8 3/3/3
f 9/9/9 11/11/11 3/3/3
f 11/11/11 10/10/10 3/3/3
s off
f 12/12/12 2/13/13 1/14/14 13/15/15
f 13/15/16 1/14/17 4/16/18 14/17/19
f 15/18/20 7/19/21 5/20/22 16/21/23
s 2
f 18/23/24 19/24/25 17/22/26 25/33/27
s off
f 21/26/28 22/27/29 20/25/30 26/34/31
f 23/28/32 9/29/33 7/30/34 15/31/35
s 2
f 24/32/36 19/24/25 18/23/24 32/40/37
s 3
f 17/22/38 19/24/39 27/35/40 28/36/41
s 4
f 30/38/42 31/39/43 29/37/44 33/41/45
s 5
f 34/42/46 35/43/47 36/44/48
f 37/45/49 34/42/46 36/44/48
s off
f 22/27/50 38/46/51 39/47/52 20/25/53
s 5
f 35/43/47 40/48/54 36/44/48
f 41/49/55 37/45/49 36/44/48
f 40/48/54 42/50/56 36/44/48
f 43/51/57 41/49/55 36/44/48
f 42/50/56 44/52/58 36/44/48
f 44/52/58 43/51/57 36/44/48
s 3
f 19/24/39 24/32/59 45/53/60 27/35/40
s off
f 5/20/61 2/13/62 12/12/63 46/54/64 16/21/65
f 4/16/66 6/55/67 47/56/68 14/17/69
f 28/57/70 48/58/71 25/33/72 17/59/73
f 49/60/74 50/61/75 39/47/76 38/46/77
f 6/55/78 8/62/79 51/63/80 47/56/81
f 21/26/82 49/60/83 38/46/84 22/27/85
f 50/61/86 26/34/87 20/25/88 39/47/89
f 14/143/90 47/136/91 51/66/92 52/64/93 53/65/94 48/137/95 28/36/96 27/35/97 46/140/98 12/141/99 13/142/100
f 8/62/101 10/67/102 54/68/103 52/69/104 51/63/105
f 45/53/106 67/139/107 53/65/108 52/64/109 54/70/110 55/138/111 23/144/112 15/145/113 16/146/114 46/140/115 27/35/116
f 11/71/117 9/29/118 23/28/119 55/72/120
f 10/67/121 11/71/122 55/72/123 54/68/124
f 56/73/125 57/74/126 58/75/127 59/76/128
f 60/77/129 31/39/130 56/73/131 59/76/132
s 6
f 29/37/133 61/78/134 50/61/135 49/60/136
s 4
f 61/78/137 29/37/44 31/39/43 60/77/138
s off
f 31/39/139 30/38/140 57/74/141 56/73/142
f 62/79/143 63/80/144 64/81/145 65/82/146
f 66/83/147 60/77/148 59/76/149 58/75/150
f 67/84/151 45/85/152 24/86/153 32/40/154
s 6
f 68/87/155 29/37/133 49/60/136 21/26/156
s off
f 69/88/157 70/89/158 71/90/159 72/91/160
f 65/82/161 64/81/162 73/92/163 74/93/164
f 30/38/165 66/83/166 58/75/167 57/74/168
f 75/94/169 76/95/170 70/89/171 69/88/172
s 6
f 61/78/134 77/96/173 26/34/174 50/61/135
s off
f 78/97/175 79/98/176 76/95/177 75/94/178
f 80/99/179 81/100/180 79/101/181 78/102/182
f 82/103/183 34/104/184 37/105/185 83/106/186
s 4
f 84/107/187 61/78/137 60/77/138 66/83/188
s off
f 85/108/189 40/109/190 35/110/191 86/111/192
f 83/106/193 37/105/194 41/112/195 87/113/196
s 6
f 77/96/173 68/87/155 21/26/156 26/34/174
s 7
f 68/114/197 77/115/198 88/116/199 89/117/200
s off
f 90/118/201 42/119/202 40/109/203 85/108/204
s 7
f 33/41/205 68/114/197 89/117/200 91/120/206
s off
f 92/121/207 44/122/208 42/119/209 90/118/210
f 93/123/211 43/124/212 44/125/213 92/126/214
s 4
f 33/41/45 84/107/187 66/83/188 30/38/42
s 7
f 77/115/198 84/107/215 94/127/216 88/116/199
f 84/107/215 33/41/205 91/120/206 94/127/216
s off
f 89/117/217 88/116/218 95/128/219 96/129/220
f 91/120/221 89/117/222 96/129/223 97/130/224
f 88/116/225 94/127/226 98/131/227 95/128/228
f 94/127/229 91/120/230 97/130/231 98/131/232
f 72/91/233 71/90/234 99/132/235 63/80/236 62/79/237
f 74/93/238 73/92/239 100/133/240 81/100/241 80/99/242
f 86/111/243 35/110/244 34/104/245 82/103/246 101/134/247
f 97/130/248 96/129/249 95/128/250 98/131/251
f 87/113/252 41/112/253 43/124/254 93/123/255 102/135/256
s 8
f 33/147/257 29/148/258 99/149/259 71/150/260 70/151/261 76/152/262
s 9
f 61/153/263 84/154/264 90/155/265 85/156/266 86/157/267 101/158/268
s 8
f 68/159/269 33/147/257 76/152/262 79/160/270 81/161/271 100/162/272
s 9
f 84/154/264 77/163/273 102/164/274 93/165/275 92/166/276 90/155/265
s 8
f 29/148/258 68/159/269 100/162/272 73/167/277 64/168/278 63/169/279 99/149/259
s 9
f 77/163/273 61/153/263 101/158/268 82/170/280 83/171/281 87/172/282 102/164/274
s 10
f 48/58/283 53/173/284 72/174/285 62/175/286 65/176/287 74/177/288 80/178/289 18/23/290 25/33/291
f 53/173/284 67/84/292 32/40/293 18/23/290 80/178/289 78/179/294 75/180/295 69/181/296 72/174/285
